# Object Export From Tinkercad Server 2015

mtllib obj.mtl

o obj_0
v -50.165 		8.25 		113.233
v -50.165 		6.25 		113.233
v -40.909 		3.276 		0
v -31.182 		-0.699 		0
v 50.165 		6.245 		113.233
v -50.165 		6.25 		0
v 40.718 		1.645 		113.233
v -50.165 		8.25 		0
v -40.909 		1.276 		0
v -21.092 		-3.631 		0
v 10.232 		-7.907 		113.233
v -10.75 		-5.488 		0
v 30.84 		-3.938 		113.233
v -31.182 		-2.699 		0
v 30.84 		-1.938 		113.233
v 40.718 		-0.355 		113.233
v 50.165 		4.245 		113.233
v -10.75 		-7.488 		113.233
v 20.641 		-6.465 		113.233
v -40.909 		3.276 		113.233
v -21.092 		-5.631 		0
v -0.27 		-6.25 		0
v -31.182 		-0.699 		113.233
v -0.27 		-8.25 		113.233
v -0.27 		-8.25 		0
v -10.75 		-7.488 		0
v -21.092 		-3.631 		113.233
v -40.909 		1.276 		113.233
v -10.75 		-5.488 		113.233
v 10.232 		-5.907 		0
v -31.182 		-2.699 		113.233
v -0.27 		-6.25 		113.233
v -21.092 		-5.631 		113.233
v 20.641 		-6.465 		0
v 50.165 		6.245 		0
v 40.718 		1.645 		0
v 20.641 		-4.465 		0
v 30.84 		-3.938 		0
v 40.718 		-0.355 		0
v 50.165 		4.245 		0
v 10.232 		-5.907 		113.233
v 20.641 		-4.465 		113.233
v 10.232 		-7.907 		0
v 30.84 		-1.938 		0
# 44 vertices

g group_0_11909273

usemtl color_11909273
s 0

f 4 	9 	3
f 6 	3 	9
f 10 	14 	4
f 9 	4 	14
f 12 	21 	10
f 7 	15 	16
f 16 	17 	7
f 5 	7 	17
f 14 	10 	21
f 1 	2 	20
f 2 	28 	20
f 23 	20 	28
f 28 	31 	23
f 34 	38 	19
f 10 	23 	27
f 27 	23 	31
f 31 	33 	27
f 29 	27 	33
f 1 	8 	2
f 6 	2 	8
f 33 	18 	29
f 32 	29 	18
f 26 	18 	21
f 7 	35 	36
f 18 	24 	32
f 24 	11 	32
f 5 	35 	7
f 18 	26 	24
f 25 	24 	26
f 13 	19 	38
f 22 	30 	43
f 37 	34 	30
f 13 	38 	16
f 39 	16 	38
f 42 	30 	41
f 3 	8 	20
f 40 	17 	16
f 40 	16 	39
f 44 	38 	37
f 4 	3 	20
f 4 	20 	23
f 20 	8 	1
f 43 	30 	34
f 38 	34 	37
f 36 	39 	44
f 38 	44 	39
f 40 	39 	36
f 40 	36 	35
f 8 	3 	6
f 37 	30 	42
f 14 	31 	28
f 24 	25 	43
f 12 	10 	27
f 12 	27 	29
f 44 	37 	42
f 44 	42 	15
f 43 	11 	24
f 14 	21 	31
f 19 	11 	43
f 29 	32 	12
f 22 	12 	32
f 15 	7 	44
f 36 	44 	7
f 33 	31 	21
f 34 	19 	43
f 18 	33 	21
f 30 	22 	32
f 30 	32 	41
f 10 	4 	23
f 2 	6 	28
f 9 	28 	6
f 21 	12 	26
f 12 	22 	26
f 43 	25 	22
f 25 	26 	22
f 14 	28 	9
f 35 	5 	17
f 35 	17 	40
f 41 	32 	11
f 11 	19 	41
f 42 	41 	19
f 19 	13 	42
f 15 	42 	13
f 13 	16 	15
# 84 faces

 #end of obj_0

