# Object Export From Tinkercad Server 2015

mtllib obj.mtl

o obj_0
v -82.8092 		-12.7745 		0
v -75.5689 		-35.4522 		0
v -81.0206 		-35.7118 		0
v -86.1016 		-24.5568 		0
v -94.8271 		-35.4537 		0
v -87.6301 		-12.7745 		0
v -84.1803 		-19.0882 		0
v -84.4115 		-19.9102 		0
v -85.2137 		-19.1365 		0
v -83.9635 		-18.2207 		0
v -86.1743 		-19.3977 		0
v -86.4634 		-18.3378 		0
v -84.3182 		-24.5602 		0
v -85.8418 		-20.5227 		0
v -89.4433 		-35.7118 		0
v -82.9806 		-29.5718 		0
v -87.4433 		-29.5718 		0
v -81.0206 		-35.7118 		8.7121
v -75.5689 		-35.4522 		8.7121
v -82.8092 		-12.7745 		8.7121
v -87.6301 		-12.7745 		8.7121
v -94.8271 		-35.4537 		8.7121
v -86.1016 		-24.5568 		8.7121
v -84.4115 		-19.9102 		8.7121
v -84.1803 		-19.0882 		8.7121
v -83.9635 		-18.2207 		8.7121
v -85.2137 		-19.1365 		8.7121
v -86.4634 		-18.3378 		8.7121
v -86.1743 		-19.3977 		8.7121
v -85.8418 		-20.5227 		8.7121
v -84.3182 		-24.5602 		8.7121
v -89.4433 		-35.7118 		8.7121
v -82.9806 		-29.5718 		8.7121
v -87.4433 		-29.5718 		8.7121
v -66.7507 		-23.9165 		0
v -58.6801 		-35.1365 		0
v -64.3112 		-35.7118 		0
v -64.5034 		-12.8545 		0
v -59.0536 		-13.4431 		0
v -75.5072 		-12.8545 		0
v -69.97 		-12.8545 		0
v -70.7721 		-21.97 		0
v -69.97 		-35.7118 		0
v -75.5072 		-35.7118 		0
v -70.7805 		-26.1792 		0
v -64.3112 		-35.7118 		8.7121
v -58.6801 		-35.1365 		8.7121
v -66.7507 		-23.9165 		8.7121
v -59.0536 		-13.4431 		8.7121
v -64.5034 		-12.8545 		8.7121
v -70.7721 		-21.97 		8.7121
v -69.97 		-12.8545 		8.7121
v -75.5072 		-12.8545 		8.7121
v -75.5072 		-35.7118 		8.7121
v -69.97 		-35.7118 		8.7121
v -70.7805 		-26.1792 		8.7121
v -50.0707 		-23.9165 		0
v -42.0001 		-35.1365 		0
v -47.6312 		-35.7118 		0
v -47.8234 		-12.8545 		0
v -42.3736 		-13.4431 		0
v -58.8272 		-12.8545 		0
v -53.29 		-12.8545 		0
v -54.0921 		-21.97 		0
v -53.29 		-35.7118 		0
v -58.8272 		-35.7118 		0
v -54.1005 		-26.1792 		0
v -47.6312 		-35.7118 		8.7121
v -42.0001 		-35.1365 		8.7121
v -50.0707 		-23.9165 		8.7121
v -42.3736 		-13.4431 		8.7121
v -47.8234 		-12.8545 		8.7121
v -54.0921 		-21.97 		8.7121
v -53.29 		-12.8545 		8.7121
v -58.8272 		-12.8545 		8.7121
v -58.8272 		-35.7118 		8.7121
v -53.29 		-35.7118 		8.7121
v -54.1005 		-26.1792 		8.7121
v -32.7692 		-12.7745 		0
v -25.5289 		-35.4522 		0
v -30.9806 		-35.7118 		0
v -36.0616 		-24.5568 		0
v -44.7871 		-35.4537 		0
v -37.5901 		-12.7745 		0
v -34.1403 		-19.0882 		0
v -34.3715 		-19.9102 		0
v -35.1737 		-19.1365 		0
v -33.9235 		-18.2207 		0
v -36.1343 		-19.3977 		0
v -36.4234 		-18.3378 		0
v -34.2782 		-24.5602 		0
v -35.8018 		-20.5227 		0
v -39.4033 		-35.7118 		0
v -32.9406 		-29.5718 		0
v -37.4033 		-29.5718 		0
v -30.9806 		-35.7118 		8.7121
v -25.5289 		-35.4522 		8.7121
v -32.7692 		-12.7745 		8.7121
v -37.5901 		-12.7745 		8.7121
v -44.7871 		-35.4537 		8.7121
v -36.0616 		-24.5568 		8.7121
v -34.3715 		-19.9102 		8.7121
v -34.1403 		-19.0882 		8.7121
v -33.9235 		-18.2207 		8.7121
v -35.1737 		-19.1365 		8.7121
v -36.4234 		-18.3378 		8.7121
v -36.1343 		-19.3977 		8.7121
v -35.8018 		-20.5227 		8.7121
v -34.2782 		-24.5602 		8.7121
v -39.4033 		-35.7118 		8.7121
v -32.9406 		-29.5718 		8.7121
v -37.4033 		-29.5718 		8.7121
v -16.8551 		-27.8086 		0
v -19.2754 		-28.0118 		0
v -20.41 		-28.0118 		0
v -12.8697 		-25.9887 		0
v -14.6831 		-27.1483 		0
v -10.7145 		-22.403 		0
v -11.5146 		-24.3654 		0
v -11.4038 		-16.1115 		0
v -10.4494 		-20.0903 		0
v -18.8337 		-12.8545 		0
v -14.429 		-13.589 		0
v -20.41 		-22.8345 		0
v -25.9472 		-35.7118 		0
v -25.9472 		-12.8545 		0
v -20.41 		-35.7118 		0
v -20.41 		-18.0318 		0
v -19.3434 		-18.0318 		0
v -19.6883 		-22.8345 		0
v -18.2585 		-22.7401 		0
v -17.3368 		-18.3662 		0
v -17.3191 		-22.504 		0
v -16.5154 		-19.0506 		0
v -16.1855 		-20.4256 		0
v -16.8048 		-22.2095 		0
v -16.4955 		-21.8372 		0
v -16.2682 		-21.2378 		0
v -20.41 		-28.0118 		8.7121
v -19.2754 		-28.0118 		8.7121
v -16.8551 		-27.8086 		8.7121
v -14.6831 		-27.1483 		8.7121
v -12.8697 		-25.9887 		8.7121
v -11.5146 		-24.3654 		8.7121
v -10.7145 		-22.403 		8.7121
v -10.4494 		-20.0903 		8.7121
v -11.4038 		-16.1115 		8.7121
v -14.429 		-13.589 		8.7121
v -18.8337 		-12.8545 		8.7121
v -25.9472 		-12.8545 		8.7121
v -25.9472 		-35.7118 		8.7121
v -20.41 		-22.8345 		8.7121
v -20.41 		-35.7118 		8.7121
v -20.41 		-18.0318 		8.7121
v -19.3434 		-18.0318 		8.7121
v -19.6883 		-22.8345 		8.7121
v -18.2585 		-22.7401 		8.7121
v -17.3368 		-18.3662 		8.7121
v -17.3191 		-22.504 		8.7121
v -16.5154 		-19.0506 		8.7121
v -16.1855 		-20.4256 		8.7121
v -16.8048 		-22.2095 		8.7121
v -16.4955 		-21.8372 		8.7121
v -16.2682 		-21.2378 		8.7121
v 5.29 		-30.4745 		0
v 7.93 		-30.4745 		0
v 7.93 		-40.9318 		0
v -5.9885 		-17.3457 		0
v -5.6613 		-12.8545 		0
v 5.29 		-12.8545 		0
v -4.0509 		-30.8499 		0
v -9.4733 		-30.4745 		0
v -8.8148 		-29.0842 		0
v -2.5409 		-28.0039 		0
v -3.4851 		-30.5428 		0
v -1.0063 		-22.1216 		0
v -1.6983 		-25.1044 		0
v -0.3853 		-18.1118 		0
v -0.5174 		-19.326 		0
v -6.23 		-40.9318 		0
v -11.5672 		-40.9318 		0
v -11.5672 		-30.4745 		0
v 2.5728 		-40.9318 		0
v 2.5728 		-35.7118 		0
v -7.8856 		-26.5192 		0
v -6.23 		-35.7118 		0
v -7.0659 		-23.5689 		0
v -0.2672 		-30.4745 		0
v -6.4215 		-20.4351 		0
v -0.2672 		-18.1118 		0
v 7.93 		-40.9318 		8.7121
v 7.93 		-30.4745 		8.7121
v 5.29 		-30.4745 		8.7121
v 5.29 		-12.8545 		8.7121
v -5.6613 		-12.8545 		8.7121
v -5.9885 		-17.3457 		8.7121
v -8.8148 		-29.0842 		8.7121
v -9.4733 		-30.4745 		8.7121
v -4.0509 		-30.8499 		8.7121
v -3.4851 		-30.5428 		8.7121
v -2.5409 		-28.0039 		8.7121
v -1.6983 		-25.1044 		8.7121
v -1.0063 		-22.1216 		8.7121
v -0.5174 		-19.326 		8.7121
v -0.3853 		-18.1118 		8.7121
v -11.5672 		-30.4745 		8.7121
v -11.5672 		-40.9318 		8.7121
v -6.23 		-40.9318 		8.7121
v 2.5728 		-35.7118 		8.7121
v 2.5728 		-40.9318 		8.7121
v -7.8856 		-26.5192 		8.7121
v -6.23 		-35.7118 		8.7121
v -7.0659 		-23.5689 		8.7121
v -0.2672 		-30.4745 		8.7121
v -6.4215 		-20.4351 		8.7121
v -0.2672 		-18.1118 		8.7121
v 6.8928 		-35.7118 		0
v 6.8928 		-12.8545 		0
v 12.23 		-12.8545 		0
v 20.1297 		-19.2918 		0
v 12.2297 		-35.7118 		0
v 17.56 		-21.9242 		0
v 17.6413 		-20.0075 		0
v 17.7298 		-19.2474 		0
v 17.5328 		-35.7118 		0
v 17.5328 		-23.4295 		0
v 22.89 		-12.8545 		0
v 22.89 		-35.7118 		0
v 9.6725 		-29.2145 		0
v 17.5325 		-12.8545 		0
v 12.2187 		-26.4983 		0
v 12.1845 		-27.6844 		0
v 12.1285 		-28.7522 		0
v 12.23 		-25.2299 		0
v 12.0793 		-29.2444 		0
v 12.23 		-12.8545 		8.7121
v 6.8928 		-12.8545 		8.7121
v 6.8928 		-35.7118 		8.7121
v 12.2297 		-35.7118 		8.7121
v 20.1297 		-19.2918 		8.7121
v 17.7298 		-19.2474 		8.7121
v 17.6413 		-20.0075 		8.7121
v 17.56 		-21.9242 		8.7121
v 17.5328 		-23.4295 		8.7121
v 17.5328 		-35.7118 		8.7121
v 22.89 		-35.7118 		8.7121
v 22.89 		-12.8545 		8.7121
v 17.5325 		-12.8545 		8.7121
v 9.6725 		-29.2145 		8.7121
v 12.1285 		-28.7522 		8.7121
v 12.1845 		-27.6844 		8.7121
v 12.2187 		-26.4983 		8.7121
v 12.23 		-25.2299 		8.7121
v 12.0793 		-29.2444 		8.7121
v 36.3728 		-34.5476 		0
v 34.1412 		-35.6509 		0
v 31.4533 		-36.0209 		0
v 39.3673 		-30.3563 		0
v 38.1387 		-32.735 		0
v 40.2936 		-24.2837 		0
v 40.0684 		-27.5368 		0
v 39.3779 		-18.2149 		0
v 40.0709 		-21.0319 		0
v 36.4117 		-14.0127 		0
v 38.1638 		-15.8389 		0
v 31.4966 		-12.5255 		0
v 34.1833 		-12.8985 		0
v 23.7239 		-18.0121 		0
v 26.6583 		-13.8861 		0
v 28.5399 		-24.2643 		0
v 22.8378 		-24.2419 		0
v 28.9901 		-28.2311 		0
v 26.6347 		-34.6502 		0
v 23.7181 		-30.5022 		0
v 28.9934 		-20.3231 		0
v 30.0728 		-30.1389 		0
v 30.0839 		-18.4278 		0
v 31.7072 		-30.715 		0
v 31.743 		-17.8511 		0
v 32.4889 		-30.596 		0
v 32.491 		-17.9658 		0
v 33.1381 		-30.2261 		0
v 33.1386 		-18.3315 		0
v 33.6808 		-29.5408 		0
v 33.6867 		-18.9993 		0
v 34.1551 		-28.3438 		0
v 34.4773 		-26.5746 		0
v 34.1553 		-20.175 		0
v 34.4772 		-21.9426 		0
v 34.591 		-24.263 		0
v 31.4533 		-36.0209 		8.7121
v 34.1412 		-35.6509 		8.7121
v 36.3728 		-34.5476 		8.7121
v 38.1387 		-32.735 		8.7121
v 39.3673 		-30.3563 		8.7121
v 40.0684 		-27.5368 		8.7121
v 40.2936 		-24.2837 		8.7121
v 40.0709 		-21.0319 		8.7121
v 39.3779 		-18.2149 		8.7121
v 38.1638 		-15.8389 		8.7121
v 36.4117 		-14.0127 		8.7121
v 34.1833 		-12.8985 		8.7121
v 31.4966 		-12.5255 		8.7121
v 26.6583 		-13.8861 		8.7121
v 23.7239 		-18.0121 		8.7121
v 22.8378 		-24.2419 		8.7121
v 28.5399 		-24.2643 		8.7121
v 28.9901 		-28.2311 		8.7121
v 23.7181 		-30.5022 		8.7121
v 26.6347 		-34.6502 		8.7121
v 28.9934 		-20.3231 		8.7121
v 30.0728 		-30.1389 		8.7121
v 30.0839 		-18.4278 		8.7121
v 31.7072 		-30.715 		8.7121
v 31.743 		-17.8511 		8.7121
v 32.4889 		-30.596 		8.7121
v 32.491 		-17.9658 		8.7121
v 33.1381 		-30.2261 		8.7121
v 33.1386 		-18.3315 		8.7121
v 33.6808 		-29.5408 		8.7121
v 33.6867 		-18.9993 		8.7121
v 34.1551 		-28.3438 		8.7121
v 34.4773 		-26.5746 		8.7121
v 34.1553 		-20.175 		8.7121
v 34.4772 		-21.9426 		8.7121
v 34.591 		-24.263 		8.7121
v 56.25 		-12.8545 		0
v 56.25 		-35.7118 		0
v 50.6928 		-35.7118 		0
v 50.6928 		-21.2145 		0
v 50.6928 		-12.8545 		0
v 40.2328 		-12.8545 		0
v 45.77 		-12.8545 		0
v 45.77 		-21.2145 		0
v 45.77 		-35.7118 		0
v 40.2328 		-35.7118 		0
v 50.6928 		-26.4718 		0
v 45.77 		-26.4718 		0
v 50.6928 		-35.7118 		8.7121
v 56.25 		-35.7118 		8.7121
v 56.25 		-12.8545 		8.7121
v 50.6928 		-12.8545 		8.7121
v 50.6928 		-21.2145 		8.7121
v 45.77 		-21.2145 		8.7121
v 45.77 		-12.8545 		8.7121
v 40.2328 		-12.8545 		8.7121
v 40.2328 		-35.7118 		8.7121
v 45.77 		-35.7118 		8.7121
v 50.6928 		-26.4718 		8.7121
v 45.77 		-26.4718 		8.7121
# 350 vertices

g group_0_15277357

usemtl color_15277357
s 0

f 1 	2 	3
f 4 	5 	6
f 7 	8 	4
f 9 	10 	7
f 11 	12 	9
f 13 	14 	11
f 15 	5 	4
f 1 	3 	16
f 7 	4 	6
f 13 	11 	9
f 17 	15 	4
f 9 	7 	6
f 17 	4 	13
f 9 	6 	1
f 16 	17 	13
f 9 	1 	16
f 16 	13 	9
f 18 	19 	20
f 21 	22 	23
f 23 	24 	25
f 25 	26 	27
f 27 	28 	29
f 29 	30 	31
f 23 	22 	32
f 33 	18 	20
f 21 	23 	25
f 27 	29 	31
f 23 	32 	34
f 21 	25 	27
f 31 	23 	34
f 20 	21 	27
f 31 	34 	33
f 33 	20 	27
f 27 	31 	33
f 2 	1 	19
f 1 	20 	19
f 1 	6 	20
f 6 	21 	20
f 6 	5 	21
f 5 	22 	21
f 5 	15 	22
f 15 	32 	22
f 15 	17 	32
f 17 	34 	32
f 17 	16 	34
f 16 	33 	34
f 16 	3 	33
f 3 	18 	33
f 3 	2 	18
f 2 	19 	18
f 4 	8 	23
f 8 	24 	23
f 8 	7 	24
f 7 	25 	24
f 7 	10 	25
f 10 	26 	25
f 10 	9 	26
f 9 	27 	26
f 9 	12 	27
f 12 	28 	27
f 12 	11 	28
f 11 	29 	28
f 11 	14 	29
f 14 	30 	29
f 14 	13 	30
f 13 	31 	30
f 13 	4 	31
f 4 	23 	31
f 35 	36 	37
f 38 	39 	35
f 40 	41 	42
f 43 	44 	40
f 35 	37 	45
f 42 	38 	35
f 45 	43 	40
f 42 	35 	45
f 45 	40 	42
f 46 	47 	48
f 48 	49 	50
f 51 	52 	53
f 53 	54 	55
f 56 	46 	48
f 48 	50 	51
f 53 	55 	56
f 56 	48 	51
f 51 	53 	56
f 35 	39 	48
f 39 	49 	48
f 39 	38 	49
f 38 	50 	49
f 38 	42 	50
f 42 	51 	50
f 42 	41 	51
f 41 	52 	51
f 41 	40 	52
f 40 	53 	52
f 40 	44 	53
f 44 	54 	53
f 44 	43 	54
f 43 	55 	54
f 43 	45 	55
f 45 	56 	55
f 45 	37 	56
f 37 	46 	56
f 37 	36 	46
f 36 	47 	46
f 36 	35 	47
f 35 	48 	47
f 57 	58 	59
f 60 	61 	57
f 62 	63 	64
f 65 	66 	62
f 57 	59 	67
f 64 	60 	57
f 67 	65 	62
f 64 	57 	67
f 67 	62 	64
f 68 	69 	70
f 70 	71 	72
f 73 	74 	75
f 75 	76 	77
f 78 	68 	70
f 70 	72 	73
f 75 	77 	78
f 78 	70 	73
f 73 	75 	78
f 57 	61 	70
f 61 	71 	70
f 61 	60 	71
f 60 	72 	71
f 60 	64 	72
f 64 	73 	72
f 64 	63 	73
f 63 	74 	73
f 63 	62 	74
f 62 	75 	74
f 62 	66 	75
f 66 	76 	75
f 66 	65 	76
f 65 	77 	76
f 65 	67 	77
f 67 	78 	77
f 67 	59 	78
f 59 	68 	78
f 59 	58 	68
f 58 	69 	68
f 58 	57 	69
f 57 	70 	69
f 79 	80 	81
f 82 	83 	84
f 85 	86 	82
f 87 	88 	85
f 89 	90 	87
f 91 	92 	89
f 93 	83 	82
f 79 	81 	94
f 85 	82 	84
f 91 	89 	87
f 95 	93 	82
f 87 	85 	84
f 95 	82 	91
f 87 	84 	79
f 94 	95 	91
f 87 	79 	94
f 94 	91 	87
f 96 	97 	98
f 99 	100 	101
f 101 	102 	103
f 103 	104 	105
f 105 	106 	107
f 107 	108 	109
f 101 	100 	110
f 111 	96 	98
f 99 	101 	103
f 105 	107 	109
f 101 	110 	112
f 99 	103 	105
f 109 	101 	112
f 98 	99 	105
f 109 	112 	111
f 111 	98 	105
f 105 	109 	111
f 80 	79 	97
f 79 	98 	97
f 79 	84 	98
f 84 	99 	98
f 84 	83 	99
f 83 	100 	99
f 83 	93 	100
f 93 	110 	100
f 93 	95 	110
f 95 	112 	110
f 95 	94 	112
f 94 	111 	112
f 94 	81 	111
f 81 	96 	111
f 81 	80 	96
f 80 	97 	96
f 82 	86 	101
f 86 	102 	101
f 86 	85 	102
f 85 	103 	102
f 85 	88 	103
f 88 	104 	103
f 88 	87 	104
f 87 	105 	104
f 87 	90 	105
f 90 	106 	105
f 90 	89 	106
f 89 	107 	106
f 89 	92 	107
f 92 	108 	107
f 92 	91 	108
f 91 	109 	108
f 91 	82 	109
f 82 	101 	109
f 113 	114 	115
f 116 	117 	113
f 118 	119 	116
f 120 	121 	118
f 122 	123 	120
f 124 	125 	126
f 115 	127 	125
f 116 	113 	115
f 120 	118 	116
f 126 	122 	120
f 128 	124 	126
f 115 	125 	124
f 129 	128 	126
f 115 	124 	130
f 129 	126 	120
f 115 	130 	131
f 132 	129 	120
f 115 	131 	133
f 134 	132 	120
f 116 	115 	133
f 135 	134 	120
f 116 	133 	136
f 135 	120 	116
f 116 	136 	137
f 138 	135 	116
f 116 	137 	138
f 139 	140 	141
f 141 	142 	143
f 143 	144 	145
f 145 	146 	147
f 147 	148 	149
f 150 	151 	152
f 151 	153 	139
f 139 	141 	143
f 143 	145 	147
f 147 	149 	150
f 150 	152 	154
f 152 	151 	139
f 150 	154 	155
f 156 	152 	139
f 147 	150 	155
f 157 	156 	139
f 147 	155 	158
f 159 	157 	139
f 147 	158 	160
f 159 	139 	143
f 147 	160 	161
f 162 	159 	143
f 143 	147 	161
f 163 	162 	143
f 143 	161 	164
f 164 	163 	143
f 114 	113 	140
f 113 	141 	140
f 113 	117 	141
f 117 	142 	141
f 117 	116 	142
f 116 	143 	142
f 116 	119 	143
f 119 	144 	143
f 119 	118 	144
f 118 	145 	144
f 118 	121 	145
f 121 	146 	145
f 121 	120 	146
f 120 	147 	146
f 120 	123 	147
f 123 	148 	147
f 123 	122 	148
f 122 	149 	148
f 122 	126 	149
f 126 	150 	149
f 126 	125 	150
f 125 	151 	150
f 125 	127 	151
f 127 	153 	151
f 127 	115 	153
f 115 	139 	153
f 115 	114 	139
f 114 	140 	139
f 128 	129 	154
f 129 	155 	154
f 129 	132 	155
f 132 	158 	155
f 132 	134 	158
f 134 	160 	158
f 134 	135 	160
f 135 	161 	160
f 135 	138 	161
f 138 	164 	161
f 138 	137 	164
f 137 	163 	164
f 137 	136 	163
f 136 	162 	163
f 136 	133 	162
f 133 	159 	162
f 133 	131 	159
f 131 	157 	159
f 131 	130 	157
f 130 	156 	157
f 130 	124 	156
f 124 	152 	156
f 124 	128 	152
f 128 	154 	152
f 165 	166 	167
f 168 	169 	170
f 171 	172 	173
f 174 	175 	171
f 176 	177 	174
f 178 	179 	176
f 180 	181 	182
f 167 	183 	184
f 171 	173 	185
f 176 	174 	171
f 186 	180 	182
f 165 	167 	184
f 171 	185 	187
f 178 	176 	171
f 186 	182 	188
f 165 	184 	186
f 171 	187 	189
f 165 	186 	188
f 171 	189 	168
f 165 	188 	190
f 178 	171 	168
f 170 	165 	190
f 178 	168 	170
f 170 	190 	178
f 191 	192 	193
f 194 	195 	196
f 197 	198 	199
f 199 	200 	201
f 201 	202 	203
f 203 	204 	205
f 206 	207 	208
f 209 	210 	191
f 211 	197 	199
f 199 	201 	203
f 206 	208 	212
f 209 	191 	193
f 213 	211 	199
f 199 	203 	205
f 214 	206 	212
f 212 	209 	193
f 215 	213 	199
f 214 	212 	193
f 196 	215 	199
f 216 	214 	193
f 196 	199 	205
f 216 	193 	194
f 194 	196 	205
f 205 	216 	194
f 166 	165 	192
f 165 	193 	192
f 165 	170 	193
f 170 	194 	193
f 170 	169 	194
f 169 	195 	194
f 169 	168 	195
f 168 	196 	195
f 168 	189 	196
f 189 	215 	196
f 189 	187 	215
f 187 	213 	215
f 187 	185 	213
f 185 	211 	213
f 185 	173 	211
f 173 	197 	211
f 173 	172 	197
f 172 	198 	197
f 172 	182 	198
f 182 	206 	198
f 182 	181 	206
f 181 	207 	206
f 181 	180 	207
f 180 	208 	207
f 180 	186 	208
f 186 	212 	208
f 186 	184 	212
f 184 	209 	212
f 184 	183 	209
f 183 	210 	209
f 183 	167 	210
f 167 	191 	210
f 167 	166 	191
f 166 	192 	191
f 171 	175 	199
f 175 	200 	199
f 175 	174 	200
f 174 	201 	200
f 174 	177 	201
f 177 	202 	201
f 177 	176 	202
f 176 	203 	202
f 176 	179 	203
f 179 	204 	203
f 179 	178 	204
f 178 	205 	204
f 178 	190 	205
f 190 	216 	205
f 190 	188 	216
f 188 	214 	216
f 188 	171 	214
f 171 	199 	214
f 217 	218 	219
f 220 	221 	217
f 222 	223 	224
f 225 	226 	222
f 227 	228 	225
f 229 	230 	227
f 231 	232 	233
f 219 	234 	231
f 225 	222 	224
f 219 	231 	233
f 227 	225 	224
f 219 	233 	235
f 227 	224 	220
f 217 	219 	235
f 227 	220 	217
f 217 	235 	229
f 229 	227 	217
f 236 	237 	238
f 238 	239 	240
f 241 	242 	243
f 243 	244 	245
f 245 	246 	247
f 247 	248 	249
f 250 	251 	252
f 252 	253 	236
f 241 	243 	245
f 250 	252 	236
f 241 	245 	247
f 254 	250 	236
f 240 	241 	247
f 254 	236 	238
f 238 	240 	247
f 249 	254 	238
f 238 	247 	249
f 217 	221 	238
f 221 	239 	238
f 221 	220 	239
f 220 	240 	239
f 220 	224 	240
f 224 	241 	240
f 224 	223 	241
f 223 	242 	241
f 223 	222 	242
f 222 	243 	242
f 222 	226 	243
f 226 	244 	243
f 226 	225 	244
f 225 	245 	244
f 225 	228 	245
f 228 	246 	245
f 228 	227 	246
f 227 	247 	246
f 227 	230 	247
f 230 	248 	247
f 230 	229 	248
f 229 	249 	248
f 229 	235 	249
f 235 	254 	249
f 235 	233 	254
f 233 	250 	254
f 233 	232 	250
f 232 	251 	250
f 232 	231 	251
f 231 	252 	251
f 231 	234 	252
f 234 	253 	252
f 234 	219 	253
f 219 	236 	253
f 219 	218 	236
f 218 	237 	236
f 218 	217 	237
f 217 	238 	237
f 255 	256 	257
f 258 	259 	255
f 260 	261 	258
f 262 	263 	260
f 264 	265 	262
f 266 	267 	264
f 268 	269 	266
f 270 	271 	268
f 271 	270 	272
f 273 	274 	271
f 255 	257 	273
f 260 	258 	255
f 264 	262 	260
f 275 	270 	268
f 271 	272 	276
f 277 	275 	268
f 273 	271 	276
f 277 	268 	266
f 273 	276 	278
f 279 	277 	266
f 273 	278 	280
f 279 	266 	264
f 255 	273 	280
f 281 	279 	264
f 255 	280 	282
f 283 	281 	264
f 255 	282 	284
f 285 	283 	264
f 255 	284 	286
f 285 	264 	260
f 255 	286 	287
f 288 	285 	260
f 260 	255 	287
f 289 	288 	260
f 260 	287 	290
f 290 	289 	260
f 291 	292 	293
f 293 	294 	295
f 295 	296 	297
f 297 	298 	299
f 299 	300 	301
f 301 	302 	303
f 303 	304 	305
f 305 	306 	307
f 308 	307 	306
f 306 	309 	310
f 310 	291 	293
f 293 	295 	297
f 297 	299 	301
f 305 	307 	311
f 312 	308 	306
f 305 	311 	313
f 312 	306 	310
f 303 	305 	313
f 314 	312 	310
f 303 	313 	315
f 316 	314 	310
f 301 	303 	315
f 316 	310 	293
f 301 	315 	317
f 318 	316 	293
f 301 	317 	319
f 320 	318 	293
f 301 	319 	321
f 322 	320 	293
f 297 	301 	321
f 323 	322 	293
f 297 	321 	324
f 323 	293 	297
f 297 	324 	325
f 326 	323 	297
f 297 	325 	326
f 256 	255 	292
f 255 	293 	292
f 255 	259 	293
f 259 	294 	293
f 259 	258 	294
f 258 	295 	294
f 258 	261 	295
f 261 	296 	295
f 261 	260 	296
f 260 	297 	296
f 260 	263 	297
f 263 	298 	297
f 263 	262 	298
f 262 	299 	298
f 262 	265 	299
f 265 	300 	299
f 265 	264 	300
f 264 	301 	300
f 264 	267 	301
f 267 	302 	301
f 267 	266 	302
f 266 	303 	302
f 266 	269 	303
f 269 	304 	303
f 269 	268 	304
f 268 	305 	304
f 268 	271 	305
f 271 	306 	305
f 271 	274 	306
f 274 	309 	306
f 274 	273 	309
f 273 	310 	309
f 273 	257 	310
f 257 	291 	310
f 257 	256 	291
f 256 	292 	291
f 276 	272 	312
f 272 	308 	312
f 272 	270 	308
f 270 	307 	308
f 270 	275 	307
f 275 	311 	307
f 275 	277 	311
f 277 	313 	311
f 277 	279 	313
f 279 	315 	313
f 279 	281 	315
f 281 	317 	315
f 281 	283 	317
f 283 	319 	317
f 283 	285 	319
f 285 	321 	319
f 285 	288 	321
f 288 	324 	321
f 288 	289 	324
f 289 	325 	324
f 289 	290 	325
f 290 	326 	325
f 290 	287 	326
f 287 	323 	326
f 287 	286 	323
f 286 	322 	323
f 286 	284 	322
f 284 	320 	322
f 284 	282 	320
f 282 	318 	320
f 282 	280 	318
f 280 	316 	318
f 280 	278 	316
f 278 	314 	316
f 278 	276 	314
f 276 	312 	314
f 327 	328 	329
f 330 	331 	327
f 332 	333 	334
f 335 	336 	332
f 327 	329 	337
f 338 	335 	332
f 330 	327 	337
f 338 	332 	334
f 330 	337 	338
f 338 	334 	330
f 339 	340 	341
f 341 	342 	343
f 344 	345 	346
f 346 	347 	348
f 349 	339 	341
f 346 	348 	350
f 349 	341 	343
f 344 	346 	350
f 350 	349 	343
f 343 	344 	350
f 327 	331 	341
f 331 	342 	341
f 331 	330 	342
f 330 	343 	342
f 330 	334 	343
f 334 	344 	343
f 334 	333 	344
f 333 	345 	344
f 333 	332 	345
f 332 	346 	345
f 332 	336 	346
f 336 	347 	346
f 336 	335 	347
f 335 	348 	347
f 335 	338 	348
f 338 	350 	348
f 338 	337 	350
f 337 	349 	350
f 337 	329 	349
f 329 	339 	349
f 329 	328 	339
f 328 	340 	339
f 328 	327 	340
f 327 	341 	340
# 680 faces

 #end of obj_0

